<svg xmlns="http://www.w3.org/2000/svg" viewBox="0 0 500 500" width="500" height="500" role="img" aria-label="Snake Lab Diamond prize sticker">
  <title>Snake Lab — Diamond</title>
  <defs>
    <linearGradient id="ring" x1="0" y1="0" x2="1" y2="1">
      <stop offset="0%" stop-color="#ffffff"/>
      <stop offset="20%" stop-color="#c0eaff"/>
      <stop offset="40%" stop-color="#e8f6ff"/>
      <stop offset="60%" stop-color="#a3c7e0"/>
      <stop offset="80%" stop-color="#8aa9c2"/>
      <stop offset="100%" stop-color="#516a82"/>
    </linearGradient>
    <radialGradient id="field" cx="0.5" cy="0.4" r="0.78">
      <stop offset="0%" stop-color="#1d6b8c"/>
      <stop offset="60%" stop-color="#0a2e44"/>
      <stop offset="100%" stop-color="#031420"/>
    </radialGradient>
    <linearGradient id="ribbon" x1="0" y1="0" x2="0" y2="1">
      <stop offset="0%" stop-color="#eaf6ff"/>
      <stop offset="50%" stop-color="#7cc0e0"/>
      <stop offset="100%" stop-color="#345f7a"/>
    </linearGradient>
    <linearGradient id="snake" x1="0" y1="0" x2="0" y2="1">
      <stop offset="0%" stop-color="#86e878"/>
      <stop offset="100%" stop-color="#2b7a30"/>
    </linearGradient>
    <linearGradient id="gem-top" x1="0" y1="0" x2="1" y2="0">
      <stop offset="0%" stop-color="#d6f4ff"/>
      <stop offset="50%" stop-color="#ffffff"/>
      <stop offset="100%" stop-color="#a3def5"/>
    </linearGradient>
    <linearGradient id="gem-left" x1="0" y1="0" x2="1" y2="1">
      <stop offset="0%" stop-color="#7fd5ee"/>
      <stop offset="100%" stop-color="#2a89b0"/>
    </linearGradient>
    <linearGradient id="gem-right" x1="0" y1="0" x2="1" y2="1">
      <stop offset="0%" stop-color="#bce7f7"/>
      <stop offset="100%" stop-color="#3a9cc4"/>
    </linearGradient>
    <radialGradient id="shine" cx="0.3" cy="0.16" r="0.6">
      <stop offset="0%" stop-color="#fff" stop-opacity="0.55"/>
      <stop offset="60%" stop-color="#fff" stop-opacity="0"/>
    </radialGradient>
    <path id="arc-top" d="M 78 250 A 178 178 0 0 1 422 250" fill="none"/>
  </defs>

  <g transform="translate(250,250)">
    <polygon points="0,-246 213,-123 213,123 0,246 -213,123 -213,-123"
             fill="none" stroke="#c0eaff" stroke-width="3" opacity="0.7"/>
    <polygon points="0,-232 201,-116 201,116 0,232 -201,116 -201,-116"
             fill="none" stroke="#ffffff" stroke-width="1" opacity="0.5"/>
  </g>

  <circle cx="250" cy="250" r="240" fill="url(#ring)" stroke="#3e5468" stroke-width="2"/>
  <circle cx="250" cy="250" r="206" fill="url(#field)" stroke="#1f3548" stroke-width="1.5"/>

  <text font-family="Verdana, Geneva, sans-serif" font-size="28" font-weight="900" fill="#e6f4fc" letter-spacing="6">
    <textPath href="#arc-top" startOffset="50%" text-anchor="middle">SNAKE LAB</textPath>
  </text>

  <g fill="#a6dcf2" opacity="0.7">
    <g transform="translate(112,168)"><path d="M 0 -7 L 1.6 -1.6 L 7 0 L 1.6 1.6 L 0 7 L -1.6 1.6 L -7 0 L -1.6 -1.6 Z"/></g>
    <g transform="translate(388,168)"><path d="M 0 -7 L 1.6 -1.6 L 7 0 L 1.6 1.6 L 0 7 L -1.6 1.6 L -7 0 L -1.6 -1.6 Z"/></g>
    <g transform="translate(98,280)"><path d="M 0 -5 L 1.2 -1.2 L 5 0 L 1.2 1.2 L 0 5 L -1.2 1.2 L -5 0 L -1.2 -1.2 Z"/></g>
    <g transform="translate(402,280)"><path d="M 0 -5 L 1.2 -1.2 L 5 0 L 1.2 1.2 L 0 5 L -1.2 1.2 L -5 0 L -1.2 -1.2 Z"/></g>
    <g transform="translate(155,128)"><path d="M 0 -5 L 1.2 -1.2 L 5 0 L 1.2 1.2 L 0 5 L -1.2 1.2 L -5 0 L -1.2 -1.2 Z"/></g>
    <g transform="translate(345,128)"><path d="M 0 -5 L 1.2 -1.2 L 5 0 L 1.2 1.2 L 0 5 L -1.2 1.2 L -5 0 L -1.2 -1.2 Z"/></g>
  </g>

  <g transform="translate(250, 158)">
    <polygon points="-26,-6 -16,-18 16,-18 26,-6 0,22" fill="url(#gem-left)" stroke="#1d4a64" stroke-width="1.4" stroke-linejoin="round"/>
    <polygon points="-16,-18 0,-6 16,-18" fill="url(#gem-top)" stroke="#1d4a64" stroke-width="1.4" stroke-linejoin="round"/>
    <polygon points="-26,-6 0,-6 0,22" fill="url(#gem-left)" stroke="#1d4a64" stroke-width="1.2" opacity="0.85"/>
    <polygon points="26,-6 0,-6 0,22" fill="url(#gem-right)" stroke="#1d4a64" stroke-width="1.2" opacity="0.9"/>
    <line x1="-26" y1="-6" x2="26" y2="-6" stroke="#1d4a64" stroke-width="1.4"/>
    <path d="M -11 -14 L -6 -10" stroke="#ffffff" stroke-width="1.6" stroke-linecap="round" opacity="0.85"/>
    <path d="M -14 -8 L -8 -3" stroke="#ffffff" stroke-width="1.2" stroke-linecap="round" opacity="0.7"/>
  </g>

  <g transform="translate(250,250)">
    <path d="M -65 -50 C -65 -92, 65 -92, 65 -50 C 65 -8, -65 -8, -65 32 C -65 74, 65 74, 65 32"
          stroke="#000" stroke-opacity="0.35" stroke-width="22" stroke-linecap="round" fill="none"
          transform="translate(3,4)"/>
    <path d="M -65 -50 C -65 -92, 65 -92, 65 -50 C 65 -8, -65 -8, -65 32 C -65 74, 65 74, 65 32"
          stroke="url(#snake)" stroke-width="20" stroke-linecap="round" fill="none"/>
    <path d="M -65 -50 C -65 -92, 65 -92, 65 -50 C 65 -8, -65 -8, -65 32 C -65 74, 65 74, 65 32"
          stroke="#bff5a8" stroke-opacity="0.28" stroke-width="5" stroke-linecap="round" fill="none"/>
    <ellipse cx="65" cy="32" rx="16" ry="13" fill="#3e8a40" stroke="#1c4f1e" stroke-width="1.5"/>
    <circle cx="71" cy="27" r="3.5" fill="white"/>
    <circle cx="72" cy="27" r="2" fill="#0a0a0a"/>
    <path d="M 80 33 L 94 31 L 89 35 L 94 39 L 80 37 Z" fill="#e84444"/>
  </g>

  <g transform="translate(250, 345)" fill="#eaf6ff" stroke="#1d4a64" stroke-width="0.6">
    <path d="M -46 -10 L -43.06 -4.05 L -36.49 -3.09 L -41.24 1.55 L -40.12 8.09 L -46 4.2 L -51.88 8.09 L -50.76 1.55 L -55.51 -3.09 L -48.94 -4.05 Z"/>
    <path d="M 0 -15 L 3.82 -7.27 L 12.36 -6.02 L 6.19 0.02 L 7.64 8.52 L 0 4.5 L -7.64 8.52 L -6.19 0.02 L -12.36 -6.02 L -3.82 -7.27 Z"/>
    <path d="M 46 -10 L 48.94 -4.05 L 55.51 -3.09 L 50.76 1.55 L 51.88 8.09 L 46 4.2 L 40.12 8.09 L 41.24 1.55 L 36.49 -3.09 L 43.06 -4.05 Z"/>
  </g>

  <g fill="#fff" opacity="0.85">
    <path d="M 88 92 L 90 84 L 92 92 L 100 94 L 92 96 L 90 104 L 88 96 L 80 94 Z"/>
    <path d="M 410 100 L 412 92 L 414 100 L 422 102 L 414 104 L 412 112 L 410 104 L 402 102 Z"/>
    <path d="M 75 350 L 77 344 L 79 350 L 85 352 L 79 354 L 77 360 L 75 354 L 69 352 Z" opacity="0.7"/>
    <path d="M 425 350 L 427 344 L 429 350 L 435 352 L 429 354 L 427 360 L 425 354 L 419 352 Z" opacity="0.7"/>
  </g>

  <g transform="translate(250, 405)">
    <path d="M -150 -24 L 150 -24 L 162 4 L 150 32 L 0 38 L -150 32 L -162 4 Z"
          fill="url(#ribbon)" stroke="#1d4a64" stroke-width="2"/>
    <path d="M -150 -24 L 150 -24 L 154 -15 L -154 -15 Z" fill="#fff" opacity="0.45"/>
    <text x="0" y="14" text-anchor="middle"
          font-family="Verdana, Geneva, sans-serif" font-size="30" font-weight="900"
          fill="#0e2a3c" letter-spacing="4">DIAMOND</text>
  </g>

  <circle cx="250" cy="250" r="240" fill="url(#shine)" pointer-events="none"/>
</svg>
