<svg xmlns="http://www.w3.org/2000/svg" viewBox="0 0 500 500" width="500" height="500" role="img" aria-label="Snake Lab Gold prize sticker">
  <title>Snake Lab — Gold</title>
  <defs>
    <linearGradient id="ring" x1="0" y1="0" x2="1" y2="1">
      <stop offset="0%" stop-color="#fff7c2"/>
      <stop offset="25%" stop-color="#f5c542"/>
      <stop offset="50%" stop-color="#ffe480"/>
      <stop offset="75%" stop-color="#c98a18"/>
      <stop offset="100%" stop-color="#7a5108"/>
    </linearGradient>
    <linearGradient id="rays" x1="0" y1="0" x2="0" y2="1">
      <stop offset="0%" stop-color="#ffd962"/>
      <stop offset="100%" stop-color="#b87a10"/>
    </linearGradient>
    <radialGradient id="field" cx="0.5" cy="0.4" r="0.75">
      <stop offset="0%" stop-color="#7a4a12"/>
      <stop offset="100%" stop-color="#1f1404"/>
    </radialGradient>
    <linearGradient id="ribbon" x1="0" y1="0" x2="0" y2="1">
      <stop offset="0%" stop-color="#ffe480"/>
      <stop offset="50%" stop-color="#e8a72c"/>
      <stop offset="100%" stop-color="#8e5a10"/>
    </linearGradient>
    <linearGradient id="snake" x1="0" y1="0" x2="0" y2="1">
      <stop offset="0%" stop-color="#86e878"/>
      <stop offset="100%" stop-color="#2b7a30"/>
    </linearGradient>
    <linearGradient id="crown" x1="0" y1="0" x2="0" y2="1">
      <stop offset="0%" stop-color="#fff2a8"/>
      <stop offset="100%" stop-color="#d59b20"/>
    </linearGradient>
    <radialGradient id="shine" cx="0.32" cy="0.18" r="0.55">
      <stop offset="0%" stop-color="#fff" stop-opacity="0.5"/>
      <stop offset="60%" stop-color="#fff" stop-opacity="0"/>
    </radialGradient>
    <path id="arc-top" d="M 78 250 A 178 178 0 0 1 422 250" fill="none"/>
  </defs>

  <g transform="translate(250,250)" fill="url(#rays)" opacity="0.95">
    <g>
      <polygon points="0,-248 8,-238 -8,-238"/>
      <polygon points="0,-248 8,-238 -8,-238" transform="rotate(30)"/>
      <polygon points="0,-248 8,-238 -8,-238" transform="rotate(60)"/>
      <polygon points="0,-248 8,-238 -8,-238" transform="rotate(90)"/>
      <polygon points="0,-248 8,-238 -8,-238" transform="rotate(120)"/>
      <polygon points="0,-248 8,-238 -8,-238" transform="rotate(150)"/>
      <polygon points="0,-248 8,-238 -8,-238" transform="rotate(180)"/>
      <polygon points="0,-248 8,-238 -8,-238" transform="rotate(210)"/>
      <polygon points="0,-248 8,-238 -8,-238" transform="rotate(240)"/>
      <polygon points="0,-248 8,-238 -8,-238" transform="rotate(270)"/>
      <polygon points="0,-248 8,-238 -8,-238" transform="rotate(300)"/>
      <polygon points="0,-248 8,-238 -8,-238" transform="rotate(330)"/>
    </g>
    <g opacity="0.7">
      <polygon points="0,-244 5,-236 -5,-236" transform="rotate(15)"/>
      <polygon points="0,-244 5,-236 -5,-236" transform="rotate(45)"/>
      <polygon points="0,-244 5,-236 -5,-236" transform="rotate(75)"/>
      <polygon points="0,-244 5,-236 -5,-236" transform="rotate(105)"/>
      <polygon points="0,-244 5,-236 -5,-236" transform="rotate(135)"/>
      <polygon points="0,-244 5,-236 -5,-236" transform="rotate(165)"/>
      <polygon points="0,-244 5,-236 -5,-236" transform="rotate(195)"/>
      <polygon points="0,-244 5,-236 -5,-236" transform="rotate(225)"/>
      <polygon points="0,-244 5,-236 -5,-236" transform="rotate(255)"/>
      <polygon points="0,-244 5,-236 -5,-236" transform="rotate(285)"/>
      <polygon points="0,-244 5,-236 -5,-236" transform="rotate(315)"/>
      <polygon points="0,-244 5,-236 -5,-236" transform="rotate(345)"/>
    </g>
  </g>

  <circle cx="250" cy="250" r="232" fill="url(#ring)" stroke="#5e3c08" stroke-width="2"/>
  <circle cx="250" cy="250" r="198" fill="url(#field)" stroke="#3a2306" stroke-width="1.5"/>

  <text font-family="Verdana, Geneva, sans-serif" font-size="28" font-weight="900" fill="#ffe9a8" letter-spacing="6">
    <textPath href="#arc-top" startOffset="50%" text-anchor="middle">SNAKE LAB</textPath>
  </text>

  <g fill="#ffd962" opacity="0.55">
    <circle cx="124" cy="178" r="3"/>
    <circle cx="376" cy="178" r="3"/>
    <circle cx="110" cy="280" r="2"/>
    <circle cx="390" cy="280" r="2"/>
    <circle cx="164" cy="138" r="2"/>
    <circle cx="336" cy="138" r="2"/>
  </g>

  <g transform="translate(250, 162)">
    <path d="M -28 6 L -28 -10 L -14 4 L 0 -16 L 14 4 L 28 -10 L 28 6 Z"
          fill="url(#crown)" stroke="#5e3c08" stroke-width="1.5" stroke-linejoin="round"/>
    <circle cx="-28" cy="-12" r="3" fill="#ff6b6b" stroke="#5e3c08" stroke-width="0.8"/>
    <circle cx="0" cy="-18" r="3.5" fill="#ff6b6b" stroke="#5e3c08" stroke-width="0.8"/>
    <circle cx="28" cy="-12" r="3" fill="#ff6b6b" stroke="#5e3c08" stroke-width="0.8"/>
    <rect x="-28" y="6" width="56" height="5" fill="#d59b20" stroke="#5e3c08" stroke-width="1"/>
  </g>

  <g transform="translate(250,250)">
    <path d="M -65 -50 C -65 -92, 65 -92, 65 -50 C 65 -8, -65 -8, -65 32 C -65 74, 65 74, 65 32"
          stroke="#000" stroke-opacity="0.35" stroke-width="22" stroke-linecap="round" fill="none"
          transform="translate(3,4)"/>
    <path d="M -65 -50 C -65 -92, 65 -92, 65 -50 C 65 -8, -65 -8, -65 32 C -65 74, 65 74, 65 32"
          stroke="url(#snake)" stroke-width="20" stroke-linecap="round" fill="none"/>
    <path d="M -65 -50 C -65 -92, 65 -92, 65 -50 C 65 -8, -65 -8, -65 32 C -65 74, 65 74, 65 32"
          stroke="#bff5a8" stroke-opacity="0.28" stroke-width="5" stroke-linecap="round" fill="none"/>
    <ellipse cx="65" cy="32" rx="16" ry="13" fill="#3e8a40" stroke="#1c4f1e" stroke-width="1.5"/>
    <circle cx="71" cy="27" r="3.5" fill="white"/>
    <circle cx="72" cy="27" r="2" fill="#0a0a0a"/>
    <path d="M 80 33 L 94 31 L 89 35 L 94 39 L 80 37 Z" fill="#e84444"/>
  </g>

  <g transform="translate(250, 345)" fill="#ffe480" stroke="#5e3c08" stroke-width="0.6">
    <path d="M -30 -11 L -26.8 -4.5 L -19.5 -3.4 L -24.8 1.7 L -23.5 8.9 L -30 4.6 L -36.5 8.9 L -35.2 1.7 L -40.5 -3.4 L -33.2 -4.5 Z"/>
    <path d="M 30 -11 L 33.2 -4.5 L 40.5 -3.4 L 35.2 1.7 L 36.5 8.9 L 30 4.6 L 23.5 8.9 L 24.8 1.7 L 19.5 -3.4 L 26.8 -4.5 Z"/>
  </g>

  <g transform="translate(250, 400)">
    <path d="M -140 -22 L 140 -22 L 152 4 L 140 30 L 0 36 L -140 30 L -152 4 Z"
          fill="url(#ribbon)" stroke="#5e3c08" stroke-width="2"/>
    <path d="M -140 -22 L 140 -22 L 144 -14 L -144 -14 Z" fill="#fff" opacity="0.4"/>
    <text x="0" y="14" text-anchor="middle"
          font-family="Verdana, Geneva, sans-serif" font-size="36" font-weight="900"
          fill="#3d2a05" letter-spacing="6">GOLD</text>
  </g>

  <circle cx="250" cy="250" r="232" fill="url(#shine)" pointer-events="none"/>
</svg>
