<svg xmlns="http://www.w3.org/2000/svg" viewBox="0 0 500 500" width="500" height="500" role="img" aria-label="Snake Lab Silver prize sticker">
  <title>Snake Lab — Silver</title>
  <defs>
    <linearGradient id="ring" x1="0" y1="0" x2="1" y2="1">
      <stop offset="0%" stop-color="#f5f7fa"/>
      <stop offset="25%" stop-color="#c8cfd9"/>
      <stop offset="50%" stop-color="#eaeef3"/>
      <stop offset="75%" stop-color="#98a1af"/>
      <stop offset="100%" stop-color="#5d6776"/>
    </linearGradient>
    <radialGradient id="field" cx="0.5" cy="0.4" r="0.75">
      <stop offset="0%" stop-color="#33476a"/>
      <stop offset="100%" stop-color="#0c1424"/>
    </radialGradient>
    <linearGradient id="ribbon" x1="0" y1="0" x2="0" y2="1">
      <stop offset="0%" stop-color="#eef1f6"/>
      <stop offset="50%" stop-color="#a8b1bf"/>
      <stop offset="100%" stop-color="#6d7787"/>
    </linearGradient>
    <linearGradient id="snake" x1="0" y1="0" x2="0" y2="1">
      <stop offset="0%" stop-color="#86e878"/>
      <stop offset="100%" stop-color="#2b7a30"/>
    </linearGradient>
    <radialGradient id="shine" cx="0.32" cy="0.18" r="0.55">
      <stop offset="0%" stop-color="#fff" stop-opacity="0.42"/>
      <stop offset="60%" stop-color="#fff" stop-opacity="0"/>
    </radialGradient>
    <path id="arc-top" d="M 78 250 A 178 178 0 0 1 422 250" fill="none"/>
  </defs>

  <circle cx="250" cy="250" r="240" fill="url(#ring)" stroke="#4f5867" stroke-width="2"/>
  <circle cx="250" cy="250" r="206" fill="url(#field)" stroke="#3a4252" stroke-width="1.5"/>

  <text font-family="Verdana, Geneva, sans-serif" font-size="28" font-weight="900" fill="#e3e7ed" letter-spacing="6">
    <textPath href="#arc-top" startOffset="50%" text-anchor="middle">SNAKE LAB</textPath>
  </text>

  <g fill="#7b8fac" opacity="0.55">
    <circle cx="118" cy="172" r="3"/>
    <circle cx="382" cy="172" r="3"/>
    <circle cx="104" cy="280" r="2"/>
    <circle cx="396" cy="280" r="2"/>
    <circle cx="158" cy="132" r="2"/>
    <circle cx="342" cy="132" r="2"/>
  </g>

  <g transform="translate(250,238)">
    <path d="M -65 -50 C -65 -92, 65 -92, 65 -50 C 65 -8, -65 -8, -65 32 C -65 74, 65 74, 65 32"
          stroke="#000" stroke-opacity="0.32" stroke-width="22" stroke-linecap="round" fill="none"
          transform="translate(3,4)"/>
    <path d="M -65 -50 C -65 -92, 65 -92, 65 -50 C 65 -8, -65 -8, -65 32 C -65 74, 65 74, 65 32"
          stroke="url(#snake)" stroke-width="20" stroke-linecap="round" fill="none"/>
    <path d="M -65 -50 C -65 -92, 65 -92, 65 -50 C 65 -8, -65 -8, -65 32 C -65 74, 65 74, 65 32"
          stroke="#bff5a8" stroke-opacity="0.28" stroke-width="5" stroke-linecap="round" fill="none"/>
    <ellipse cx="65" cy="32" rx="16" ry="13" fill="#3e8a40" stroke="#1c4f1e" stroke-width="1.5"/>
    <circle cx="71" cy="27" r="3.5" fill="white"/>
    <circle cx="72" cy="27" r="2" fill="#0a0a0a"/>
    <path d="M 80 33 L 94 31 L 89 35 L 94 39 L 80 37 Z" fill="#e84444"/>
  </g>

  <g transform="translate(250, 333)" fill="#e3e7ed" stroke="#4f5867" stroke-width="0.6">
    <path d="M 0 -13 L 3.8 -4.0 L 13 -4.0 L 5.6 1.6 L 8.4 10.5 L 0 4.9 L -8.4 10.5 L -5.6 1.6 L -13 -4.0 L -3.8 -4.0 Z"/>
  </g>

  <g transform="translate(250, 395)">
    <path d="M -140 -22 L 140 -22 L 152 4 L 140 30 L 0 36 L -140 30 L -152 4 Z"
          fill="url(#ribbon)" stroke="#3f4756" stroke-width="2"/>
    <path d="M -140 -22 L 140 -22 L 144 -14 L -144 -14 Z" fill="#fff" opacity="0.35"/>
    <text x="0" y="14" text-anchor="middle"
          font-family="Verdana, Geneva, sans-serif" font-size="34" font-weight="900"
          fill="#1c2333" letter-spacing="5">SILVER</text>
  </g>

  <circle cx="250" cy="250" r="240" fill="url(#shine)" pointer-events="none"/>
</svg>
